<svg xmlns="http://www.w3.org/2000/svg" width="1000" height="390" viewBox="0 0 1000 390" data-palette="c956e6-e76abd-ccacf6-a88aac745269" role="img" aria-labelledby="hero-light-title hero-light-desc"><title id="hero-light-title">k3thrash</title><desc id="hero-light-desc">Make a saved I/O trace easier to interpret.</desc><defs><linearGradient id="brand" gradientUnits="userSpaceOnUse" x2="1000" y2="390"><stop stop-color="#a747bf"/><stop offset=".6" stop-color="#ad4f8e"/><stop offset="1" stop-color="#7c6895"/></linearGradient><radialGradient id="halo"><stop stop-color="#a747bf" stop-opacity=".22"/><stop offset="1" stop-color="#fdf9fe" stop-opacity="0"/></radialGradient><filter id="glow"><feGaussianBlur stdDeviation="5"/></filter><pattern id="grid" width="40" height="40" patternUnits="userSpaceOnUse"><path d="M40 0H0V40" fill="none" stroke="#eecbf7" stroke-opacity=".35" stroke-width=".6"/></pattern><marker id="arrow" viewBox="0 0 10 10" refX="8" refY="5" markerWidth="5" markerHeight="5" orient="auto"><path d="m1 1 7 4-7 4" fill="none" stroke="#a747bf" stroke-width="1.5"/></marker></defs><style>text{font-family:Arial,"Noto Sans",sans-serif}.flow{stroke-dasharray:10 110;animation:flow 6s linear infinite}.pulse{animation:pulse 5s ease-in-out infinite}.turn{transform-box:fill-box;transform-origin:center;animation:turn 36s linear infinite}@keyframes flow{to{stroke-dashoffset:-360}}@keyframes pulse{0%,100%{opacity:.45}50%{opacity:1}}@keyframes turn{to{transform:rotate(360deg)}}@media(prefers-reduced-motion:reduce){*{animation:none!important;transform:none!important}.flow{display:none}}</style><rect width="1000" height="390" rx="16" fill="#fdf9fe"/><rect width="1000" height="390" rx="16" fill="url(#grid)"/><ellipse cx="630.0" cy="167.7" rx="500.0" ry="273.0" fill="url(#halo)"/><circle cx="987.32" cy="66.93" r="0.80" fill="#ad4f8e" opacity="0.56"/><circle cx="849.96" cy="395.10" r="1.45" fill="#a747bf" opacity="0.79"/><circle cx="862.14" cy="432.68" r="1.62" fill="#a747bf" opacity="0.25"/><circle cx="609.47" cy="321.49" r="1.49" fill="#ad4f8e" opacity="0.30"/><circle cx="835.19" cy="362.00" r="1.66" fill="#a747bf" opacity="0.31"/><circle cx="1032.45" cy="303.23" r="1.09" fill="#a747bf" opacity="0.27"/><circle cx="577.91" cy="250.39" r="1.54" fill="#ad4f8e" opacity="0.64"/><circle cx="835.03" cy="280.21" r="0.76" fill="#a747bf" opacity="0.51"/><circle cx="816.93" cy="19.00" r="0.84" fill="#a747bf" opacity="0.66"/><circle cx="1036.00" cy="119.78" r="1.55" fill="#ad4f8e" opacity="0.55"/><circle cx="937.52" cy="50.27" r="1.33" fill="#a747bf" opacity="0.38"/><circle cx="768.22" cy="256.81" r="1.23" fill="#a747bf" opacity="0.79"/><circle cx="961.57" cy="66.25" r="1.30" fill="#ad4f8e" opacity="0.60"/><circle cx="1032.59" cy="119.52" r="0.95" fill="#a747bf" opacity="0.76"/><circle cx="1041.49" cy="227.51" r="1.45" fill="#a747bf" opacity="0.58"/><circle cx="901.47" cy="54.13" r="1.16" fill="#ad4f8e" opacity="0.79"/><circle cx="583.34" cy="271.09" r="1.57" fill="#a747bf" opacity="0.39"/><circle cx="773.93" cy="24.01" r="1.66" fill="#a747bf" opacity="0.35"/><circle cx="869.40" cy="191.22" r="0.83" fill="#ad4f8e" opacity="0.64"/><circle cx="594.29" cy="246.56" r="1.19" fill="#a747bf" opacity="0.36"/><circle cx="758.04" cy="115.19" r="1.59" fill="#a747bf" opacity="0.58"/><circle cx="639.38" cy="253.86" r="1.70" fill="#ad4f8e" opacity="0.62"/><circle cx="748.53" cy="58.71" r="1.24" fill="#a747bf" opacity="0.21"/><circle cx="704.81" cy="176.40" r="0.65" fill="#a747bf" opacity="0.75"/><circle cx="642.32" cy="374.39" r="1.64" fill="#ad4f8e" opacity="0.49"/><circle cx="769.62" cy="401.21" r="1.35" fill="#a747bf" opacity="0.51"/><circle cx="777.54" cy="181.21" r="1.34" fill="#a747bf" opacity="0.54"/><circle cx="940.64" cy="365.71" r="1.61" fill="#ad4f8e" opacity="0.24"/><circle cx="713.43" cy="258.40" r="1.65" fill="#a747bf" opacity="0.38"/><circle cx="667.19" cy="323.63" r="1.32" fill="#a747bf" opacity="0.27"/><circle cx="718.24" cy="181.30" r="0.71" fill="#ad4f8e" opacity="0.51"/><circle cx="675.88" cy="233.52" r="1.60" fill="#a747bf" opacity="0.80"/><circle cx="891.39" cy="334.69" r="1.15" fill="#a747bf" opacity="0.69"/><circle cx="1047.23" cy="118.05" r="1.49" fill="#ad4f8e" opacity="0.49"/><circle cx="765.42" cy="167.02" r="1.40" fill="#a747bf" opacity="0.74"/><circle cx="1006.13" cy="305.10" r="1.01" fill="#a747bf" opacity="0.38"/><circle cx="791.19" cy="253.75" r="1.63" fill="#ad4f8e" opacity="0.24"/><circle cx="965.97" cy="59.62" r="1.67" fill="#a747bf" opacity="0.26"/><circle cx="576.54" cy="181.69" r="0.64" fill="#a747bf" opacity="0.74"/><circle cx="1057.51" cy="131.62" r="0.83" fill="#ad4f8e" opacity="0.23"/><circle cx="572.42" cy="236.24" r="0.98" fill="#a747bf" opacity="0.46"/><circle cx="568.99" cy="229.60" r="1.16" fill="#a747bf" opacity="0.78"/><circle cx="867.81" cy="426.61" r="1.68" fill="#ad4f8e" opacity="0.59"/><circle cx="730.15" cy="77.58" r="1.02" fill="#a747bf" opacity="0.58"/><circle cx="930.92" cy="279.03" r="0.75" fill="#a747bf" opacity="0.54"/><circle cx="724.10" cy="334.29" r="1.51" fill="#ad4f8e" opacity="0.53"/><circle cx="817.48" cy="17.69" r="0.88" fill="#a747bf" opacity="0.38"/><circle cx="949.65" cy="68.42" r="0.85" fill="#a747bf" opacity="0.79"/><circle cx="863.21" cy="144.97" r="0.66" fill="#ad4f8e" opacity="0.44"/><circle cx="809.64" cy="54.65" r="1.42" fill="#a747bf" opacity="0.73"/><circle cx="994.29" cy="151.25" r="1.25" fill="#a747bf" opacity="0.51"/><circle cx="978.37" cy="170.94" r="0.99" fill="#ad4f8e" opacity="0.23"/><circle cx="582.17" cy="226.80" r="0.71" fill="#a747bf" opacity="0.34"/><circle cx="696.18" cy="401.73" r="1.44" fill="#a747bf" opacity="0.21"/><circle cx="637.97" cy="212.16" r="0.82" fill="#ad4f8e" opacity="0.43"/><circle cx="1045.26" cy="277.74" r="0.93" fill="#a747bf" opacity="0.51"/><circle cx="851.21" cy="188.05" r="0.90" fill="#a747bf" opacity="0.32"/><circle cx="988.54" cy="298.67" r="1.44" fill="#ad4f8e" opacity="0.65"/><circle cx="664.24" cy="123.96" r="0.90" fill="#a747bf" opacity="0.44"/><circle cx="835.83" cy="385.13" r="1.13" fill="#a747bf" opacity="0.72"/><circle cx="784.48" cy="204.64" r="0.72" fill="#ad4f8e" opacity="0.52"/><circle cx="630.96" cy="315.41" r="1.68" fill="#a747bf" opacity="0.66"/><circle cx="1001.14" cy="251.30" r="0.80" fill="#a747bf" opacity="0.27"/><circle cx="673.86" cy="104.44" r="1.29" fill="#ad4f8e" opacity="0.44"/><circle cx="966.35" cy="209.72" r="0.82" fill="#a747bf" opacity="0.27"/><circle cx="823.51" cy="266.81" r="1.48" fill="#a747bf" opacity="0.25"/><circle cx="928.55" cy="325.28" r="1.22" fill="#ad4f8e" opacity="0.55"/><circle cx="1002.71" cy="354.16" r="1.42" fill="#a747bf" opacity="0.45"/><circle cx="701.98" cy="356.81" r="0.95" fill="#a747bf" opacity="0.54"/><circle cx="1012.24" cy="268.40" r="1.67" fill="#ad4f8e" opacity="0.50"/><circle cx="986.06" cy="94.90" r="1.38" fill="#a747bf" opacity="0.45"/><circle cx="910.19" cy="143.59" r="1.66" fill="#a747bf" opacity="0.47"/><circle cx="1020.65" cy="163.49" r="1.60" fill="#ad4f8e" opacity="0.68"/><circle cx="587.45" cy="254.69" r="1.41" fill="#a747bf" opacity="0.59"/><circle cx="693.17" cy="381.63" r="1.30" fill="#a747bf" opacity="0.67"/><circle cx="987.68" cy="231.06" r="1.69" fill="#ad4f8e" opacity="0.78"/><circle cx="867.68" cy="413.18" r="0.89" fill="#a747bf" opacity="0.45"/><circle cx="1038.59" cy="225.74" r="0.85" fill="#a747bf" opacity="0.76"/><circle cx="982.89" cy="58.92" r="1.03" fill="#ad4f8e" opacity="0.42"/><circle cx="999.55" cy="380.17" r="0.86" fill="#a747bf" opacity="0.29"/><circle cx="588.07" cy="262.68" r="1.28" fill="#a747bf" opacity="0.72"/><circle cx="915.19" cy="411.65" r="1.21" fill="#ad4f8e" opacity="0.59"/><circle cx="1075.98" cy="171.75" r="0.64" fill="#a747bf" opacity="0.54"/><circle cx="825.19" cy="192.69" r="0.67" fill="#a747bf" opacity="0.23"/><circle cx="877.58" cy="273.25" r="1.00" fill="#ad4f8e" opacity="0.64"/><circle cx="993.38" cy="74.54" r="0.81" fill="#a747bf" opacity="0.71"/><circle cx="949.88" cy="348.71" r="1.30" fill="#a747bf" opacity="0.27"/><circle cx="943.78" cy="342.03" r="1.60" fill="#ad4f8e" opacity="0.71"/><circle cx="812.70" cy="202.87" r="1.44" fill="#a747bf" opacity="0.69"/><circle cx="1067.76" cy="164.17" r="1.32" fill="#a747bf" opacity="0.68"/><circle cx="973.66" cy="143.04" r="1.36" fill="#ad4f8e" opacity="0.46"/><circle cx="1081.35" cy="240.45" r="1.24" fill="#a747bf" opacity="0.48"/><circle cx="925.36" cy="245.31" r="1.31" fill="#a747bf" opacity="0.54"/><circle cx="881.30" cy="428.58" r="1.42" fill="#ad4f8e" opacity="0.69"/><circle cx="698.40" cy="408.05" r="0.91" fill="#a747bf" opacity="0.78"/><circle cx="589.76" cy="214.17" r="0.72" fill="#a747bf" opacity="0.59"/><circle cx="905.84" cy="349.23" r="1.56" fill="#ad4f8e" opacity="0.74"/><circle cx="658.99" cy="221.78" r="1.46" fill="#a747bf" opacity="0.75"/><circle cx="968.84" cy="375.48" r="1.64" fill="#a747bf" opacity="0.67"/><circle cx="1019.22" cy="124.98" r="1.17" fill="#ad4f8e" opacity="0.40"/><circle cx="677.17" cy="231.29" r="0.81" fill="#a747bf" opacity="0.69"/><circle cx="814.36" cy="214.45" r="1.25" fill="#a747bf" opacity="0.53"/><circle cx="1022.45" cy="89.65" r="1.06" fill="#ad4f8e" opacity="0.31"/><circle cx="919.08" cy="95.86" r="0.87" fill="#a747bf" opacity="0.71"/><circle cx="882.41" cy="242.15" r="1.61" fill="#a747bf" opacity="0.66"/><circle cx="951.44" cy="67.11" r="1.33" fill="#ad4f8e" opacity="0.80"/><circle cx="1080.69" cy="190.09" r="0.90" fill="#a747bf" opacity="0.34"/><circle cx="1067.66" cy="152.13" r="0.79" fill="#a747bf" opacity="0.74"/><circle cx="1027.45" cy="132.78" r="1.13" fill="#ad4f8e" opacity="0.77"/><circle cx="964.50" cy="214.56" r="0.64" fill="#a747bf" opacity="0.47"/><circle cx="605.55" cy="278.81" r="0.95" fill="#a747bf" opacity="0.64"/><circle cx="943.68" cy="330.62" r="1.24" fill="#ad4f8e" opacity="0.38"/><circle cx="953.31" cy="331.44" r="1.39" fill="#a747bf" opacity="0.30"/><circle cx="1062.82" cy="162.75" r="0.74" fill="#a747bf" opacity="0.69"/><circle cx="965.97" cy="340.70" r="1.31" fill="#ad4f8e" opacity="0.21"/><circle cx="876.28" cy="33.90" r="1.06" fill="#a747bf" opacity="0.64"/><circle cx="690.23" cy="397.11" r="1.65" fill="#a747bf" opacity="0.68"/><circle cx="636.24" cy="241.03" r="1.29" fill="#ad4f8e" opacity="0.22"/><circle cx="782.67" cy="169.73" r="1.27" fill="#a747bf" opacity="0.30"/><circle cx="694.81" cy="74.48" r="1.11" fill="#a747bf" opacity="0.49"/><circle cx="873.84" cy="211.50" r="0.86" fill="#ad4f8e" opacity="0.65"/><circle cx="936.71" cy="218.99" r="1.05" fill="#a747bf" opacity="0.78"/><circle cx="924.46" cy="163.98" r="0.66" fill="#a747bf" opacity="0.79"/><circle cx="642.34" cy="118.25" r="1.01" fill="#ad4f8e" opacity="0.28"/><circle cx="1010.71" cy="138.83" r="1.64" fill="#a747bf" opacity="0.60"/><circle cx="849.74" cy="430.58" r="1.64" fill="#a747bf" opacity="0.50"/><circle cx="620.71" cy="125.42" r="0.95" fill="#ad4f8e" opacity="0.21"/><circle cx="582.99" cy="148.90" r="0.96" fill="#a747bf" opacity="0.69"/><circle cx="971.35" cy="236.73" r="1.43" fill="#a747bf" opacity="0.59"/><circle cx="892.34" cy="425.91" r="1.22" fill="#ad4f8e" opacity="0.23"/><circle cx="1012.40" cy="84.85" r="1.25" fill="#a747bf" opacity="0.29"/><circle cx="917.71" cy="33.98" r="1.63" fill="#a747bf" opacity="0.45"/><circle cx="673.26" cy="235.29" r="1.25" fill="#ad4f8e" opacity="0.22"/><circle cx="925.09" cy="37.08" r="0.84" fill="#a747bf" opacity="0.28"/><circle cx="1032.34" cy="275.63" r="0.89" fill="#a747bf" opacity="0.43"/><circle cx="695.99" cy="68.94" r="1.22" fill="#ad4f8e" opacity="0.34"/><circle cx="955.80" cy="326.68" r="1.25" fill="#a747bf" opacity="0.43"/><circle cx="720.19" cy="397.66" r="0.61" fill="#a747bf" opacity="0.76"/><circle cx="862.84" cy="112.41" r="0.87" fill="#ad4f8e" opacity="0.62"/><circle cx="640.91" cy="184.68" r="0.76" fill="#a747bf" opacity="0.27"/><circle cx="1057.80" cy="225.40" r="0.98" fill="#a747bf" opacity="0.61"/><circle cx="1024.68" cy="146.14" r="1.06" fill="#ad4f8e" opacity="0.43"/><circle cx="971.02" cy="333.04" r="1.05" fill="#a747bf" opacity="0.48"/><circle cx="712.24" cy="36.35" r="1.54" fill="#a747bf" opacity="0.21"/><circle cx="1073.75" cy="282.77" r="0.80" fill="#ad4f8e" opacity="0.67"/><circle cx="1078.56" cy="183.14" r="1.06" fill="#a747bf" opacity="0.25"/><circle cx="1083.75" cy="204.51" r="1.01" fill="#a747bf" opacity="0.32"/><circle cx="689.56" cy="370.29" r="1.37" fill="#ad4f8e" opacity="0.40"/><circle cx="946.39" cy="44.08" r="1.67" fill="#a747bf" opacity="0.43"/><circle cx="700.76" cy="212.84" r="1.54" fill="#a747bf" opacity="0.68"/><circle cx="794.83" cy="18.23" r="1.62" fill="#ad4f8e" opacity="0.46"/><circle cx="632.30" cy="222.04" r="1.29" fill="#a747bf" opacity="0.40"/><circle cx="653.44" cy="131.86" r="0.96" fill="#a747bf" opacity="0.37"/><circle cx="697.95" cy="373.48" r="0.63" fill="#ad4f8e" opacity="0.22"/><circle cx="1009.94" cy="372.10" r="1.45" fill="#a747bf" opacity="0.66"/><circle cx="620.20" cy="336.27" r="0.69" fill="#a747bf" opacity="0.35"/><circle cx="760.16" cy="28.94" r="1.11" fill="#ad4f8e" opacity="0.49"/><circle cx="822.24" cy="50.33" r="1.04" fill="#a747bf" opacity="0.52"/><circle cx="994.11" cy="67.84" r="0.77" fill="#a747bf" opacity="0.23"/><circle cx="976.61" cy="391.59" r="1.54" fill="#ad4f8e" opacity="0.63"/><circle cx="763.34" cy="125.08" r="0.67" fill="#a747bf" opacity="0.62"/><circle cx="702.16" cy="46.43" r="1.36" fill="#a747bf" opacity="0.62"/><circle cx="952.71" cy="390.86" r="1.01" fill="#ad4f8e" opacity="0.63"/><circle cx="924.31" cy="108.16" r="1.16" fill="#a747bf" opacity="0.21"/><circle cx="588.87" cy="276.70" r="1.47" fill="#a747bf" opacity="0.78"/><circle cx="1062.39" cy="310.65" r="1.63" fill="#ad4f8e" opacity="0.37"/><circle cx="916.81" cy="327.06" r="0.78" fill="#a747bf" opacity="0.73"/><circle cx="754.22" cy="143.06" r="1.07" fill="#a747bf" opacity="0.68"/><circle cx="878.76" cy="411.50" r="0.96" fill="#ad4f8e" opacity="0.43"/><circle cx="947.72" cy="195.58" r="0.72" fill="#a747bf" opacity="0.24"/><circle cx="877.37" cy="162.63" r="0.62" fill="#a747bf" opacity="0.45"/><circle cx="796.55" cy="323.03" r="0.69" fill="#ad4f8e" opacity="0.25"/><circle cx="795.16" cy="21.11" r="1.26" fill="#a747bf" opacity="0.73"/><circle cx="882.60" cy="397.98" r="0.65" fill="#a747bf" opacity="0.30"/><circle cx="982.36" cy="341.97" r="1.35" fill="#ad4f8e" opacity="0.66"/><circle cx="895.61" cy="129.39" r="1.55" fill="#a747bf" opacity="0.73"/><circle cx="916.73" cy="189.59" r="1.14" fill="#a747bf" opacity="0.47"/><circle cx="803.22" cy="37.26" r="0.67" fill="#ad4f8e" opacity="0.26"/><circle cx="920.80" cy="417.64" r="1.01" fill="#a747bf" opacity="0.35"/><circle cx="1069.44" cy="296.50" r="1.41" fill="#a747bf" opacity="0.58"/><circle cx="897.52" cy="65.86" r="0.64" fill="#ad4f8e" opacity="0.27"/><circle cx="970.39" cy="316.07" r="1.05" fill="#a747bf" opacity="0.39"/><circle cx="989.89" cy="318.22" r="1.31" fill="#a747bf" opacity="0.27"/><circle cx="940.39" cy="172.36" r="0.79" fill="#ad4f8e" opacity="0.27"/><circle cx="650.00" cy="359.87" r="0.61" fill="#a747bf" opacity="0.43"/><circle cx="1002.24" cy="361.02" r="1.31" fill="#a747bf" opacity="0.74"/><circle cx="984.79" cy="337.45" r="1.42" fill="#ad4f8e" opacity="0.64"/><circle cx="601.13" cy="129.29" r="1.42" fill="#a747bf" opacity="0.67"/><circle cx="623.40" cy="220.27" r="1.63" fill="#a747bf" opacity="0.67"/><circle cx="602.66" cy="273.83" r="1.29" fill="#ad4f8e" opacity="0.32"/><circle cx="927.08" cy="88.19" r="0.64" fill="#a747bf" opacity="0.52"/><circle cx="624.46" cy="354.77" r="1.56" fill="#a747bf" opacity="0.26"/><circle cx="589.56" cy="253.49" r="1.50" fill="#ad4f8e" opacity="0.79"/><circle cx="676.66" cy="62.16" r="1.23" fill="#a747bf" opacity="0.50"/><circle cx="1016.41" cy="358.53" r="0.69" fill="#a747bf" opacity="0.45"/><circle cx="631.17" cy="351.07" r="1.04" fill="#ad4f8e" opacity="0.35"/><circle cx="591.66" cy="146.81" r="0.77" fill="#a747bf" opacity="0.54"/><circle cx="688.80" cy="282.48" r="0.67" fill="#a747bf" opacity="0.64"/><circle cx="902.56" cy="418.02" r="1.61" fill="#ad4f8e" opacity="0.61"/><circle cx="697.46" cy="218.71" r="0.69" fill="#a747bf" opacity="0.66"/><circle cx="918.82" cy="344.82" r="1.33" fill="#a747bf" opacity="0.71"/><circle cx="597.05" cy="300.75" r="1.21" fill="#ad4f8e" opacity="0.56"/><circle cx="671.61" cy="384.53" r="1.56" fill="#a747bf" opacity="0.69"/><circle cx="810.75" cy="135.81" r="0.97" fill="#a747bf" opacity="0.34"/><circle cx="859.12" cy="133.03" r="1.01" fill="#ad4f8e" opacity="0.65"/><circle cx="904.08" cy="89.15" r="1.53" fill="#a747bf" opacity="0.37"/><circle cx="991.81" cy="349.49" r="0.74" fill="#a747bf" opacity="0.46"/><circle cx="701.49" cy="155.52" r="1.49" fill="#ad4f8e" opacity="0.43"/><circle cx="787.82" cy="349.91" r="1.05" fill="#a747bf" opacity="0.41"/><circle cx="988.60" cy="362.48" r="1.51" fill="#a747bf" opacity="0.59"/><circle cx="720.32" cy="262.44" r="1.22" fill="#ad4f8e" opacity="0.72"/><circle cx="634.89" cy="223.18" r="1.35" fill="#a747bf" opacity="0.64"/><circle cx="1014.67" cy="111.21" r="0.67" fill="#a747bf" opacity="0.72"/><circle cx="983.16" cy="58.34" r="0.78" fill="#ad4f8e" opacity="0.74"/><circle cx="641.20" cy="108.66" r="0.97" fill="#a747bf" opacity="0.29"/><circle cx="695.40" cy="400.93" r="1.43" fill="#a747bf" opacity="0.58"/><circle cx="878.56" cy="139.13" r="1.31" fill="#ad4f8e" opacity="0.51"/><circle cx="776.18" cy="392.17" r="1.39" fill="#a747bf" opacity="0.34"/><circle cx="966.90" cy="60.07" r="1.22" fill="#a747bf" opacity="0.42"/><circle cx="709.46" cy="231.19" r="1.37" fill="#ad4f8e" opacity="0.44"/><circle cx="707.09" cy="193.91" r="1.41" fill="#a747bf" opacity="0.75"/><circle cx="996.41" cy="73.05" r="1.16" fill="#a747bf" opacity="0.41"/><circle cx="955.39" cy="354.20" r="1.29" fill="#ad4f8e" opacity="0.23"/><circle cx="788.89" cy="81.72" r="1.43" fill="#a747bf" opacity="0.49"/><circle cx="628.38" cy="325.59" r="1.61" fill="#a747bf" opacity="0.62"/><circle cx="610.04" cy="140.86" r="0.79" fill="#ad4f8e" opacity="0.56"/><circle cx="939.70" cy="285.10" r="0.63" fill="#a747bf" opacity="0.39"/><circle cx="800.37" cy="430.67" r="0.88" fill="#a747bf" opacity="0.36"/><circle cx="875.83" cy="19.92" r="1.53" fill="#ad4f8e" opacity="0.69"/><circle cx="868.57" cy="345.94" r="1.14" fill="#a747bf" opacity="0.64"/><circle cx="834.61" cy="406.85" r="1.15" fill="#a747bf" opacity="0.64"/><circle cx="755.06" cy="407.40" r="0.99" fill="#ad4f8e" opacity="0.21"/><circle cx="1028.13" cy="94.00" r="1.26" fill="#a747bf" opacity="0.25"/><circle cx="879.44" cy="82.22" r="0.86" fill="#a747bf" opacity="0.33"/><circle cx="1061.03" cy="233.84" r="1.28" fill="#ad4f8e" opacity="0.67"/><circle cx="1001.73" cy="76.62" r="1.31" fill="#a747bf" opacity="0.76"/><circle cx="1074.12" cy="205.24" r="1.50" fill="#a747bf" opacity="0.36"/><circle cx="972.96" cy="107.26" r="1.47" fill="#ad4f8e" opacity="0.53"/><circle cx="875.00" cy="21.69" r="1.49" fill="#a747bf" opacity="0.78"/><circle cx="723.84" cy="414.94" r="0.65" fill="#a747bf" opacity="0.35"/><circle cx="886.05" cy="419.37" r="1.10" fill="#ad4f8e" opacity="0.65"/><circle cx="718.84" cy="402.63" r="1.67" fill="#a747bf" opacity="0.30"/><circle cx="761.66" cy="357.06" r="0.61" fill="#a747bf" opacity="0.68"/><circle cx="940.45" cy="153.50" r="1.06" fill="#ad4f8e" opacity="0.45"/><circle cx="958.02" cy="270.65" r="1.20" fill="#a747bf" opacity="0.65"/><circle cx="1016.91" cy="361.12" r="1.18" fill="#a747bf" opacity="0.37"/><circle cx="1069.74" cy="295.32" r="1.11" fill="#ad4f8e" opacity="0.56"/><circle cx="642.32" cy="145.43" r="1.62" fill="#a747bf" opacity="0.43"/><circle cx="757.43" cy="288.10" r="1.17" fill="#a747bf" opacity="0.78"/><circle cx="1041.61" cy="113.85" r="1.08" fill="#ad4f8e" opacity="0.60"/><circle cx="1076.56" cy="223.07" r="1.63" fill="#a747bf" opacity="0.47"/><circle cx="917.17" cy="222.79" r="0.62" fill="#a747bf" opacity="0.63"/><circle cx="909.03" cy="423.65" r="0.62" fill="#ad4f8e" opacity="0.55"/><circle cx="925.90" cy="64.78" r="0.61" fill="#a747bf" opacity="0.59"/><circle cx="988.62" cy="74.30" r="1.52" fill="#a747bf" opacity="0.28"/><circle cx="651.03" cy="196.53" r="1.51" fill="#ad4f8e" opacity="0.77"/><circle cx="655.87" cy="71.13" r="1.48" fill="#a747bf" opacity="0.27"/><circle cx="855.92" cy="368.84" r="0.97" fill="#a747bf" opacity="0.41"/><circle cx="824.46" cy="38.46" r="1.15" fill="#ad4f8e" opacity="0.26"/><circle cx="797.38" cy="43.23" r="0.85" fill="#a747bf" opacity="0.25"/><circle cx="748.25" cy="297.66" r="1.33" fill="#a747bf" opacity="0.66"/><circle cx="621.69" cy="345.03" r="1.49" fill="#ad4f8e" opacity="0.54"/><circle cx="1052.77" cy="324.44" r="1.24" fill="#a747bf" opacity="0.60"/><circle cx="587.91" cy="269.19" r="1.35" fill="#a747bf" opacity="0.38"/><circle cx="584.61" cy="148.37" r="1.57" fill="#ad4f8e" opacity="0.48"/><circle cx="796.50" cy="63.38" r="1.16" fill="#a747bf" opacity="0.53"/><circle cx="600.37" cy="178.14" r="1.36" fill="#a747bf" opacity="0.77"/><circle cx="636.38" cy="82.81" r="1.20" fill="#ad4f8e" opacity="0.51"/><circle cx="700.72" cy="399.95" r="1.16" fill="#a747bf" opacity="0.24"/><circle cx="566.71" cy="245.45" r="1.38" fill="#a747bf" opacity="0.60"/><circle cx="790.38" cy="403.30" r="1.46" fill="#ad4f8e" opacity="0.35"/><circle cx="936.03" cy="236.31" r="1.59" fill="#a747bf" opacity="0.30"/><circle cx="929.09" cy="403.17" r="1.17" fill="#a747bf" opacity="0.45"/><circle cx="1076.95" cy="251.82" r="1.27" fill="#ad4f8e" opacity="0.39"/><circle cx="1025.34" cy="358.06" r="0.99" fill="#a747bf" opacity="0.46"/><circle cx="609.45" cy="308.39" r="0.91" fill="#a747bf" opacity="0.50"/><circle cx="1033.74" cy="350.20" r="1.30" fill="#ad4f8e" opacity="0.61"/><circle cx="631.51" cy="362.18" r="0.80" fill="#a747bf" opacity="0.75"/><circle cx="685.20" cy="401.29" r="0.61" fill="#a747bf" opacity="0.53"/><circle cx="1057.55" cy="299.28" r="0.71" fill="#ad4f8e" opacity="0.33"/><circle cx="1012.56" cy="233.04" r="1.21" fill="#a747bf" opacity="0.66"/><circle cx="651.80" cy="276.91" r="1.04" fill="#a747bf" opacity="0.65"/><circle cx="645.12" cy="260.25" r="0.92" fill="#ad4f8e" opacity="0.67"/><circle cx="989.17" cy="130.13" r="0.93" fill="#a747bf" opacity="0.65"/><circle cx="692.61" cy="360.42" r="1.33" fill="#a747bf" opacity="0.48"/><circle cx="805.87" cy="399.26" r="1.25" fill="#ad4f8e" opacity="0.68"/><circle cx="1072.84" cy="194.12" r="0.90" fill="#a747bf" opacity="0.47"/><circle cx="842.25" cy="266.43" r="1.12" fill="#a747bf" opacity="0.31"/><circle cx="663.39" cy="61.62" r="1.62" fill="#ad4f8e" opacity="0.73"/><circle cx="825.83" cy="82.99" r="1.54" fill="#a747bf" opacity="0.40"/><circle cx="880.08" cy="410.06" r="0.94" fill="#a747bf" opacity="0.40"/><circle cx="1071.49" cy="190.41" r="0.91" fill="#ad4f8e" opacity="0.62"/><circle cx="824.66" cy="434.70" r="0.84" fill="#a747bf" opacity="0.69"/><circle cx="865.87" cy="363.63" r="1.45" fill="#a747bf" opacity="0.38"/><circle cx="749.12" cy="288.18" r="0.97" fill="#ad4f8e" opacity="0.68"/><circle cx="888.87" cy="50.91" r="0.68" fill="#a747bf" opacity="0.54"/><circle cx="955.70" cy="90.93" r="1.62" fill="#a747bf" opacity="0.43"/><circle cx="843.40" cy="86.44" r="0.70" fill="#ad4f8e" opacity="0.39"/><circle cx="899.48" cy="37.74" r="1.19" fill="#a747bf" opacity="0.44"/><circle cx="735.05" cy="387.79" r="1.16" fill="#a747bf" opacity="0.57"/><circle cx="749.15" cy="338.51" r="1.25" fill="#ad4f8e" opacity="0.54"/><circle cx="588.54" cy="285.21" r="1.42" fill="#a747bf" opacity="0.32"/><circle cx="734.95" cy="246.52" r="1.00" fill="#a747bf" opacity="0.77"/><circle cx="681.52" cy="372.63" r="1.36" fill="#ad4f8e" opacity="0.35"/><circle cx="717.66" cy="234.20" r="0.95" fill="#a747bf" opacity="0.80"/><circle cx="649.95" cy="319.62" r="1.34" fill="#a747bf" opacity="0.29"/><circle cx="970.12" cy="63.46" r="1.43" fill="#ad4f8e" opacity="0.36"/><circle cx="863.67" cy="353.79" r="0.88" fill="#a747bf" opacity="0.46"/><circle cx="714.64" cy="50.37" r="0.82" fill="#a747bf" opacity="0.73"/><circle cx="578.87" cy="214.19" r="1.50" fill="#ad4f8e" opacity="0.42"/><circle cx="1014.27" cy="89.91" r="1.30" fill="#a747bf" opacity="0.71"/><circle cx="895.96" cy="372.69" r="1.20" fill="#a747bf" opacity="0.55"/><circle cx="979.37" cy="59.60" r="1.29" fill="#ad4f8e" opacity="0.22"/><circle cx="721.99" cy="389.19" r="1.49" fill="#a747bf" opacity="0.42"/><circle cx="714.31" cy="326.49" r="1.07" fill="#a747bf" opacity="0.66"/><circle cx="578.93" cy="191.36" r="1.69" fill="#ad4f8e" opacity="0.20"/><circle cx="998.60" cy="338.39" r="1.48" fill="#a747bf" opacity="0.29"/><circle cx="1065.78" cy="215.65" r="0.77" fill="#a747bf" opacity="0.48"/><circle cx="965.41" cy="320.78" r="1.28" fill="#ad4f8e" opacity="0.38"/><circle cx="810.13" cy="152.30" r="0.99" fill="#a747bf" opacity="0.77"/><circle cx="793.51" cy="359.84" r="1.39" fill="#a747bf" opacity="0.29"/><circle cx="1001.95" cy="91.76" r="0.60" fill="#ad4f8e" opacity="0.70"/><circle cx="860.17" cy="37.52" r="1.39" fill="#a747bf" opacity="0.73"/><circle cx="1014.97" cy="306.91" r="0.69" fill="#a747bf" opacity="0.31"/><circle cx="1061.86" cy="308.42" r="1.52" fill="#ad4f8e" opacity="0.64"/><circle cx="938.49" cy="407.47" r="1.31" fill="#a747bf" opacity="0.31"/><circle cx="997.56" cy="370.48" r="0.62" fill="#a747bf" opacity="0.27"/><circle cx="800.96" cy="81.16" r="0.62" fill="#ad4f8e" opacity="0.23"/><circle cx="863.12" cy="47.39" r="0.70" fill="#a747bf" opacity="0.22"/><circle cx="1076.42" cy="213.38" r="0.86" fill="#a747bf" opacity="0.33"/><circle cx="1034.08" cy="270.74" r="0.61" fill="#ad4f8e" opacity="0.78"/><circle cx="589.72" cy="293.66" r="1.18" fill="#a747bf" opacity="0.38"/><circle cx="1014.17" cy="194.63" r="1.50" fill="#a747bf" opacity="0.41"/><circle cx="649.25" cy="373.63" r="1.45" fill="#ad4f8e" opacity="0.62"/><circle cx="917.96" cy="415.31" r="1.12" fill="#a747bf" opacity="0.45"/><circle cx="1070.52" cy="294.07" r="1.32" fill="#a747bf" opacity="0.27"/><circle cx="856.58" cy="24.80" r="1.22" fill="#ad4f8e" opacity="0.50"/><circle cx="607.29" cy="270.84" r="0.86" fill="#a747bf" opacity="0.27"/><circle cx="617.57" cy="290.14" r="1.42" fill="#a747bf" opacity="0.61"/><circle cx="714.28" cy="301.18" r="1.60" fill="#ad4f8e" opacity="0.26"/><circle cx="693.34" cy="360.83" r="1.59" fill="#a747bf" opacity="0.42"/><circle cx="724.85" cy="333.63" r="1.12" fill="#a747bf" opacity="0.31"/><circle cx="811.56" cy="352.53" r="1.53" fill="#ad4f8e" opacity="0.74"/><circle cx="934.42" cy="352.06" r="1.40" fill="#a747bf" opacity="0.44"/><circle cx="757.38" cy="386.37" r="1.43" fill="#a747bf" opacity="0.23"/><circle cx="601.99" cy="309.01" r="0.75" fill="#ad4f8e" opacity="0.45"/><circle cx="635.29" cy="267.48" r="0.82" fill="#a747bf" opacity="0.32"/><circle cx="661.31" cy="142.72" r="0.68" fill="#a747bf" opacity="0.69"/><circle cx="751.70" cy="364.98" r="0.63" fill="#ad4f8e" opacity="0.46"/><circle cx="769.24" cy="401.90" r="0.84" fill="#a747bf" opacity="0.75"/><circle cx="883.34" cy="308.38" r="1.03" fill="#a747bf" opacity="0.52"/><circle cx="925.50" cy="198.40" r="0.69" fill="#ad4f8e" opacity="0.20"/><circle cx="685.49" cy="208.84" r="1.67" fill="#a747bf" opacity="0.67"/><circle cx="766.24" cy="428.98" r="1.10" fill="#a747bf" opacity="0.56"/><circle cx="694.94" cy="44.05" r="0.63" fill="#ad4f8e" opacity="0.26"/><circle cx="824.44" cy="313.48" r="1.62" fill="#a747bf" opacity="0.43"/><circle cx="997.78" cy="350.98" r="1.54" fill="#a747bf" opacity="0.53"/><circle cx="684.50" cy="49.07" r="1.62" fill="#ad4f8e" opacity="0.21"/><circle cx="956.79" cy="384.79" r="1.67" fill="#a747bf" opacity="0.42"/><circle cx="880.48" cy="416.74" r="1.68" fill="#a747bf" opacity="0.47"/><text x="48" y="56" fill="#6c5e88" font-size="13" text-anchor="start" font-weight="400">PROJECT / OPEN SOURCE</text><text x="48" y="182" font-size="74.0" fill="url(#brand)" font-weight="700">k3thrash</text><text x="50" y="242.0" fill="#231630" font-size="24" text-anchor="start" font-weight="400">Make a saved I/O trace easier to</text><text x="50" y="275.6" fill="#231630" font-size="24" text-anchor="start" font-weight="400">interpret.</text><path d="M656.0 309.0L762.6 193.5L864.0 235.5L975.8 120.0" fill="none" stroke="#a747bf" stroke-width="1.5" marker-end="url(#arrow)"/><path d="M656.0 309.0L762.6 193.5L864.0 235.5L975.8 120.0" class="flow" fill="none" stroke="#7c6895" stroke-width="2"/><circle cx="656.0" cy="309.0" r="12" fill="#7c6895" opacity=".5" filter="url(#glow)"/><circle class="pulse" cx="656.0" cy="309.0" r="3" fill="#7c6895"/><circle cx="762.6" cy="193.5" r="12" fill="#7c6895" opacity=".5" filter="url(#glow)"/><circle class="pulse" cx="762.6" cy="193.5" r="3" fill="#7c6895"/><circle cx="864.0" cy="235.5" r="12" fill="#7c6895" opacity=".5" filter="url(#glow)"/><circle class="pulse" cx="864.0" cy="235.5" r="3" fill="#7c6895"/><circle cx="975.8" cy="120.0" r="12" fill="#7c6895" opacity=".5" filter="url(#glow)"/><circle class="pulse" cx="975.8" cy="120.0" r="3" fill="#7c6895"/></svg>
